<?xml version="1.0" encoding="UTF-8" standalone="no"?>
<!DOCTYPE svg PUBLIC "-//W3C//DTD SVG 1.1//EN"
 "http://www.w3.org/Graphics/SVG/1.1/DTD/svg11.dtd">
<!-- Generated by graphviz version 2.38.0 (20140413.2041)
 -->
<!-- Title: Tree Pages: 1 -->
<svg width="279pt" height="269pt"
 viewBox="0.00 0.00 279.00 269.00" xmlns="http://www.w3.org/2000/svg" xmlns:xlink="http://www.w3.org/1999/xlink">
<g id="graph0" class="graph" transform="scale(1 1) rotate(0) translate(4 265)">
<title>Tree</title>
<polygon fill="white" stroke="none" points="-4,4 -4,-265 275,-265 275,4 -4,4"/>
<!-- 0 -->
<g id="node1" class="node"><title>0</title>
<polygon fill="#399de5" fill-opacity="0.333333" stroke="black" points="168.5,-261 48.5,-261 48.5,-193 168.5,-193 168.5,-261"/>
<text text-anchor="middle" x="108.5" y="-245.8" font-family="Times New Roman,serif" font-size="14.00">Sky_sunny &lt;= 0.5</text>
<text text-anchor="middle" x="108.5" y="-230.8" font-family="Times New Roman,serif" font-size="14.00">samples = 5</text>
<text text-anchor="middle" x="108.5" y="-215.8" font-family="Times New Roman,serif" font-size="14.00">value = [2, 3]</text>
<text text-anchor="middle" x="108.5" y="-200.8" font-family="Times New Roman,serif" font-size="14.00">class = 0</text>
</g>
<!-- 1 -->
<g id="node2" class="node"><title>1</title>
<polygon fill="#e58139" stroke="black" points="91,-149.5 0,-149.5 0,-96.5 91,-96.5 91,-149.5"/>
<text text-anchor="middle" x="45.5" y="-134.3" font-family="Times New Roman,serif" font-size="14.00">samples = 1</text>
<text text-anchor="middle" x="45.5" y="-119.3" font-family="Times New Roman,serif" font-size="14.00">value = [1, 0]</text>
<text text-anchor="middle" x="45.5" y="-104.3" font-family="Times New Roman,serif" font-size="14.00">class = 1</text>
</g>
<!-- 0&#45;&gt;1 -->
<g id="edge1" class="edge"><title>0&#45;&gt;1</title>
<path fill="none" stroke="black" d="M88.0457,-192.884C81.185,-181.776 73.5238,-169.372 66.6136,-158.184"/>
<polygon fill="black" stroke="black" points="69.4951,-156.189 61.2623,-149.52 63.5395,-159.867 69.4951,-156.189"/>
<text text-anchor="middle" x="55.5117" y="-170.15" font-family="Times New Roman,serif" font-size="14.00">True</text>
</g>
<!-- 2 -->
<g id="node3" class="node"><title>2</title>
<polygon fill="#399de5" fill-opacity="0.666667" stroke="black" points="234,-157 109,-157 109,-89 234,-89 234,-157"/>
<text text-anchor="middle" x="171.5" y="-141.8" font-family="Times New Roman,serif" font-size="14.00">Wind_weak &lt;= 0.5</text>
<text text-anchor="middle" x="171.5" y="-126.8" font-family="Times New Roman,serif" font-size="14.00">samples = 4</text>
<text text-anchor="middle" x="171.5" y="-111.8" font-family="Times New Roman,serif" font-size="14.00">value = [1, 3]</text>
<text text-anchor="middle" x="171.5" y="-96.8" font-family="Times New Roman,serif" font-size="14.00">class = 0</text>
</g>
<!-- 0&#45;&gt;2 -->
<g id="edge2" class="edge"><title>0&#45;&gt;2</title>
<path fill="none" stroke="black" d="M128.954,-192.884C134.236,-184.332 139.992,-175.013 145.514,-166.072"/>
<polygon fill="black" stroke="black" points="148.656,-167.647 150.933,-157.299 142.7,-163.968 148.656,-167.647"/>
<text text-anchor="middle" x="156.683" y="-177.929" font-family="Times New Roman,serif" font-size="14.00">False</text>
</g>
<!-- 3 -->
<g id="node4" class="node"><title>3</title>
<polygon fill="#399de5" stroke="black" points="162,-53 71,-53 71,-0 162,-0 162,-53"/>
<text text-anchor="middle" x="116.5" y="-37.8" font-family="Times New Roman,serif" font-size="14.00">samples = 3</text>
<text text-anchor="middle" x="116.5" y="-22.8" font-family="Times New Roman,serif" font-size="14.00">value = [0, 3]</text>
<text text-anchor="middle" x="116.5" y="-7.8" font-family="Times New Roman,serif" font-size="14.00">class = 0</text>
</g>
<!-- 2&#45;&gt;3 -->
<g id="edge3" class="edge"><title>2&#45;&gt;3</title>
<path fill="none" stroke="black" d="M152.264,-88.9485C147.206,-80.2579 141.736,-70.8608 136.633,-62.0917"/>
<polygon fill="black" stroke="black" points="139.534,-60.1189 131.479,-53.2367 133.484,-63.6401 139.534,-60.1189"/>
</g>
<!-- 4 -->
<g id="node5" class="node"><title>4</title>
<polygon fill="#e58139" stroke="black" points="271,-53 180,-53 180,-0 271,-0 271,-53"/>
<text text-anchor="middle" x="225.5" y="-37.8" font-family="Times New Roman,serif" font-size="14.00">samples = 1</text>
<text text-anchor="middle" x="225.5" y="-22.8" font-family="Times New Roman,serif" font-size="14.00">value = [1, 0]</text>
<text text-anchor="middle" x="225.5" y="-7.8" font-family="Times New Roman,serif" font-size="14.00">class = 1</text>
</g>
<!-- 2&#45;&gt;4 -->
<g id="edge4" class="edge"><title>2&#45;&gt;4</title>
<path fill="none" stroke="black" d="M190.387,-88.9485C195.353,-80.2579 200.722,-70.8608 205.733,-62.0917"/>
<polygon fill="black" stroke="black" points="208.871,-63.6557 210.793,-53.2367 202.793,-60.1826 208.871,-63.6557"/>
</g>
</g>
</svg>
