<?xml version="1.0" encoding="UTF-8" standalone="no"?>
<!DOCTYPE svg PUBLIC "-//W3C//DTD SVG 1.1//EN"
 "http://www.w3.org/Graphics/SVG/1.1/DTD/svg11.dtd">
<!-- Generated by graphviz version 2.38.0 (20140413.2041)
 -->
<!-- Title: Decision Tree Pages: 1 -->
<svg width="226pt" height="224pt"
 viewBox="0.00 0.00 226.00 224.00" xmlns="http://www.w3.org/2000/svg" xmlns:xlink="http://www.w3.org/1999/xlink">
<g id="graph0" class="graph" transform="scale(1 1) rotate(0) translate(4 220)">
<title>Decision Tree</title>
<polygon fill="white" stroke="none" points="-4,4 -4,-220 222,-220 222,4 -4,4"/>
<!-- 0 -->
<g id="node1" class="node"><title>0</title>
<polygon fill="none" stroke="black" points="135.5,-216 37.5,-216 37.5,-163 135.5,-163 135.5,-216"/>
<text text-anchor="middle" x="86.5" y="-200.8" font-family="Times New Roman,serif" font-size="14.00">Sky_sunny </text>
<text text-anchor="middle" x="86.5" y="-185.8" font-family="Times New Roman,serif" font-size="14.00"> value = [2, 3] </text>
<text text-anchor="middle" x="86.5" y="-170.8" font-family="Times New Roman,serif" font-size="14.00"> class = &#45;1</text>
</g>
<!-- 1 -->
<g id="node2" class="node"><title>1</title>
<polygon fill="none" stroke="black" points="71,-119.5 0,-119.5 0,-81.5 71,-81.5 71,-119.5"/>
<text text-anchor="middle" x="35.5" y="-104.3" font-family="Times New Roman,serif" font-size="14.00">[1, 0] </text>
<text text-anchor="middle" x="35.5" y="-89.3" font-family="Times New Roman,serif" font-size="14.00"> class = 0</text>
</g>
<!-- 0&#45;&gt;1 -->
<g id="edge1" class="edge"><title>0&#45;&gt;1</title>
<path fill="none" stroke="black" d="M71.4742,-162.868C65.0927,-151.982 57.652,-139.289 51.1989,-128.281"/>
<polygon fill="black" stroke="black" points="54.1323,-126.364 46.0556,-119.507 48.0934,-129.904 54.1323,-126.364"/>
</g>
<!-- 2 -->
<g id="node3" class="node"><title>2</title>
<polygon fill="none" stroke="black" points="187.5,-127 89.5,-127 89.5,-74 187.5,-74 187.5,-127"/>
<text text-anchor="middle" x="138.5" y="-111.8" font-family="Times New Roman,serif" font-size="14.00">Wind_weak </text>
<text text-anchor="middle" x="138.5" y="-96.8" font-family="Times New Roman,serif" font-size="14.00"> value = [1, 3] </text>
<text text-anchor="middle" x="138.5" y="-81.8" font-family="Times New Roman,serif" font-size="14.00"> class = 1</text>
</g>
<!-- 0&#45;&gt;2 -->
<g id="edge2" class="edge"><title>0&#45;&gt;2</title>
<path fill="none" stroke="black" d="M101.82,-162.868C106.853,-154.447 112.533,-144.945 117.892,-135.978"/>
<polygon fill="black" stroke="black" points="120.983,-137.629 123.109,-127.25 114.975,-134.038 120.983,-137.629"/>
</g>
<!-- 3 -->
<g id="node4" class="node"><title>3</title>
<polygon fill="none" stroke="black" points="129,-38 58,-38 58,-0 129,-0 129,-38"/>
<text text-anchor="middle" x="93.5" y="-22.8" font-family="Times New Roman,serif" font-size="14.00">[0, 3] </text>
<text text-anchor="middle" x="93.5" y="-7.8" font-family="Times New Roman,serif" font-size="14.00"> class = 0</text>
</g>
<!-- 2&#45;&gt;3 -->
<g id="edge3" class="edge"><title>2&#45;&gt;3</title>
<path fill="none" stroke="black" d="M124.014,-73.9081C119.184,-65.3745 113.787,-55.8395 108.89,-47.1891"/>
<polygon fill="black" stroke="black" points="111.796,-45.2174 103.824,-38.2389 105.704,-48.6656 111.796,-45.2174"/>
</g>
<!-- 4 -->
<g id="node5" class="node"><title>4</title>
<polygon fill="none" stroke="black" points="218,-38 147,-38 147,-0 218,-0 218,-38"/>
<text text-anchor="middle" x="182.5" y="-22.8" font-family="Times New Roman,serif" font-size="14.00">[1, 0] </text>
<text text-anchor="middle" x="182.5" y="-7.8" font-family="Times New Roman,serif" font-size="14.00"> class = 1</text>
</g>
<!-- 2&#45;&gt;4 -->
<g id="edge4" class="edge"><title>2&#45;&gt;4</title>
<path fill="none" stroke="black" d="M152.664,-73.9081C157.387,-65.3745 162.664,-55.8395 167.452,-47.1891"/>
<polygon fill="black" stroke="black" points="170.625,-48.6831 172.406,-38.2389 164.501,-45.2934 170.625,-48.6831"/>
</g>
</g>
</svg>
